<?xml version="1.0" encoding="UTF-8" standalone="no"?>
<svg
   version="1.1"
   id="Layer_1"
   x="0px"
   y="0px"
   width="600px"
   height="600px"
   viewBox="0 0 600 600"
   enable-background="new 0 0 600 600"
   xml:space="preserve"
   sodipodi:docname="dwarf.svg"
   inkscape:export-filename="dwarf.png"
   inkscape:export-xdpi="300"
   inkscape:export-ydpi="300"
   inkscape:version="1.3 (0e150ed, 2023-07-21)"
   xmlns:inkscape="http://www.inkscape.org/namespaces/inkscape"
   xmlns:sodipodi="http://sodipodi.sourceforge.net/DTD/sodipodi-0.dtd"
   xmlns:xlink="http://www.w3.org/1999/xlink"
   xmlns="http://www.w3.org/2000/svg"
   xmlns:svg="http://www.w3.org/2000/svg"><defs
   id="defs39" /><sodipodi:namedview
   id="namedview39"
   pagecolor="#ffffff"
   bordercolor="#000000"
   borderopacity="0.25"
   inkscape:showpageshadow="2"
   inkscape:pageopacity="0.0"
   inkscape:pagecheckerboard="0"
   inkscape:deskcolor="#d1d1d1"
   inkscape:zoom="0.39333333"
   inkscape:cx="298.72881"
   inkscape:cy="300"
   inkscape:window-width="1312"
   inkscape:window-height="449"
   inkscape:window-x="0"
   inkscape:window-y="44"
   inkscape:window-maximized="0"
   inkscape:current-layer="Layer_1" />&#10;    <g
   transform="translate(50, 0) scale(0.75)"
   id="g39">&#10;        <path
   fill-rule="evenodd"
   clip-rule="evenodd"
   stroke="#000000"
   stroke-width="2.9999"
   stroke-linecap="round"
   stroke-linejoin="round"
   stroke-miterlimit="22.9256"
   d="  M484.865,576.104v86.242H341.547v-44.703c-26.285,33.494-54.761,50.241-85.532,50.241c-36.82,0-67.278-18.988-91.582-56.835  c-24.2-37.846-36.299-83.604-36.299-137.406c0-54.594,12.413-100.615,37.237-138.065c24.826-37.451,55.179-56.176,90.956-56.176  c34.421,0,62.793,17.143,85.219,51.428V211.357h-46.313v-86.241h140.814v450.988H484.865L484.865,576.104z M342.799,474.829  c0-35.604-6.05-61.055-18.149-76.22c-12.204-15.165-25.973-22.681-41.41-22.681c-18.567,0-32.856,9.099-42.975,27.166  c-10.118,18.065-15.125,41.802-15.125,71.34c0,27.956,5.007,51.561,15.021,70.682c9.909,19.121,24.408,28.615,43.392,28.615  c15.646,0,29.415-7.78,41.41-23.341C336.854,534.961,342.799,509.774,342.799,474.829z"
   id="path1" />&#10;        <g
   id="gear"
   transform="translate(332, 396) scale(7.5)"
   mask="url(#holes)">&#10;            <circle
   r="43"
   fill="none"
   stroke="black"
   stroke-width="9"
   id="circle1" />&#10;            <g
   id="cogs">&#10;                <polygon
   id="cog"
   stroke="black"
   stroke-width="3"
   stroke-linejoin="round"
   points="46,3 51,0 46,-3" />&#10;                <use
   xlink:href="#cog"
   transform="rotate(11.25)"
   id="use1" />&#10;                <use
   xlink:href="#cog"
   transform="rotate(22.50)"
   id="use2" />&#10;                <use
   xlink:href="#cog"
   transform="rotate(33.75)"
   id="use3" />&#10;                <use
   xlink:href="#cog"
   transform="rotate(45.00)"
   id="use4" />&#10;                <use
   xlink:href="#cog"
   transform="rotate(56.25)"
   id="use5" />&#10;                <use
   xlink:href="#cog"
   transform="rotate(67.50)"
   id="use6" />&#10;                <use
   xlink:href="#cog"
   transform="rotate(78.75)"
   id="use7" />&#10;                <use
   xlink:href="#cog"
   transform="rotate(90.00)"
   id="use8" />&#10;                <use
   xlink:href="#cog"
   transform="rotate(101.25)"
   id="use9" />&#10;                <use
   xlink:href="#cog"
   transform="rotate(112.50)"
   id="use10" />&#10;                <use
   xlink:href="#cog"
   transform="rotate(123.75)"
   id="use11" />&#10;                <use
   xlink:href="#cog"
   transform="rotate(135.00)"
   id="use12" />&#10;                <use
   xlink:href="#cog"
   transform="rotate(146.25)"
   id="use13" />&#10;                <use
   xlink:href="#cog"
   transform="rotate(157.50)"
   id="use14" />&#10;                <use
   xlink:href="#cog"
   transform="rotate(168.75)"
   id="use15" />&#10;                <use
   xlink:href="#cog"
   transform="rotate(180.00)"
   id="use16" />&#10;                <use
   xlink:href="#cog"
   transform="rotate(191.25)"
   id="use17" />&#10;                <use
   xlink:href="#cog"
   transform="rotate(202.50)"
   id="use18" />&#10;                <use
   xlink:href="#cog"
   transform="rotate(213.75)"
   id="use19" />&#10;                <use
   xlink:href="#cog"
   transform="rotate(225.00)"
   id="use20" />&#10;                <use
   xlink:href="#cog"
   transform="rotate(236.25)"
   id="use21" />&#10;                <use
   xlink:href="#cog"
   transform="rotate(247.50)"
   id="use22" />&#10;                <use
   xlink:href="#cog"
   transform="rotate(258.75)"
   id="use23" />&#10;                <use
   xlink:href="#cog"
   transform="rotate(270.00)"
   id="use24" />&#10;                <use
   xlink:href="#cog"
   transform="rotate(281.25)"
   id="use25" />&#10;                <use
   xlink:href="#cog"
   transform="rotate(292.50)"
   id="use26" />&#10;                <use
   xlink:href="#cog"
   transform="rotate(303.75)"
   id="use27" />&#10;                <use
   xlink:href="#cog"
   transform="rotate(315.00)"
   id="use28" />&#10;                <use
   xlink:href="#cog"
   transform="rotate(326.25)"
   id="use29" />&#10;                <use
   xlink:href="#cog"
   transform="rotate(337.50)"
   id="use30" />&#10;                <use
   xlink:href="#cog"
   transform="rotate(348.75)"
   id="use31" />&#10;            </g>&#10;            <g
   id="mounts">&#10;                <polygon
   id="mount"
   stroke="black"
   stroke-width="6"
   stroke-linejoin="round"
   points="-7,-42 0,-35 7,-42" />&#10;                <use
   xlink:href="#mount"
   transform="rotate(72)"
   id="use32" />&#10;                <use
   xlink:href="#mount"
   transform="rotate(144)"
   id="use33" />&#10;                <use
   xlink:href="#mount"
   transform="rotate(216)"
   id="use34" />&#10;                <use
   xlink:href="#mount"
   transform="rotate(288)"
   id="use35" />&#10;            </g>&#10;        </g>&#10;        <mask
   id="holes">&#10;            <rect
   x="-60"
   y="-60"
   width="120"
   height="120"
   fill="white"
   id="rect35" />&#10;            <circle
   id="hole"
   cy="-40"
   r="3" />&#10;            <use
   xlink:href="#hole"
   transform="rotate(72)"
   id="use36" />&#10;            <use
   xlink:href="#hole"
   transform="rotate(144)"
   id="use37" />&#10;            <use
   xlink:href="#hole"
   transform="rotate(216)"
   id="use38" />&#10;            <use
   xlink:href="#hole"
   transform="rotate(288)"
   id="use39" />&#10;        </mask>&#10;    </g>&#10;</svg>
